<mxfile host="app.diagrams.net" modified="2024-09-26T17:40:29.179Z" agent="Mozilla/5.0 (Windows NT 10.0; Win64; x64; rv:130.0) Gecko/20100101 Firefox/130.0" etag="mAr8-L6yQziwKVuLThcw" version="24.4.9" type="device">
  <diagram name="Page-1" id="5qyd4jxujYh1DK8Yhu79">
    <mxGraphModel dx="1012" dy="543" grid="1" gridSize="10" guides="1" tooltips="1" connect="1" arrows="1" fold="1" page="1" pageScale="1" pageWidth="827" pageHeight="1169" math="0" shadow="0">
      <root>
        <mxCell id="0" />
        <mxCell id="1" parent="0" />
        <mxCell id="C8twne0iV87SFfaMWRcH-1" value="Encrypted Text" style="rounded=0;whiteSpace=wrap;html=1;fillColor=#fff2cc;strokeColor=#d6b656;" vertex="1" parent="1">
          <mxGeometry x="730" y="1110" width="100" height="20" as="geometry" />
        </mxCell>
        <mxCell id="C8twne0iV87SFfaMWRcH-2" value="KEY" style="rounded=0;whiteSpace=wrap;html=1;fillColor=#ffe6cc;strokeColor=#d79b00;" vertex="1" parent="1">
          <mxGeometry x="830" y="1110" width="60" height="20" as="geometry" />
        </mxCell>
        <mxCell id="C8twne0iV87SFfaMWRcH-3" value="Create random KEY" style="rounded=0;whiteSpace=wrap;html=1;fillColor=#ffe6cc;strokeColor=#d79b00;" vertex="1" parent="1">
          <mxGeometry x="730" y="390" width="120" height="120" as="geometry" />
        </mxCell>
        <mxCell id="C8twne0iV87SFfaMWRcH-4" style="edgeStyle=orthogonalEdgeStyle;rounded=0;orthogonalLoop=1;jettySize=auto;html=1;exitX=0.5;exitY=1;exitDx=0;exitDy=0;entryX=0.5;entryY=0;entryDx=0;entryDy=0;fillColor=#ffe6cc;strokeColor=#d79b00;" edge="1" parent="1" source="C8twne0iV87SFfaMWRcH-5" target="C8twne0iV87SFfaMWRcH-7">
          <mxGeometry relative="1" as="geometry" />
        </mxCell>
        <mxCell id="C8twne0iV87SFfaMWRcH-5" value="Hash the compile time using the macro __TIME__ to create a seed" style="rounded=0;whiteSpace=wrap;html=1;fillColor=#ffe6cc;strokeColor=#d79b00;" vertex="1" parent="1">
          <mxGeometry x="930" y="390" width="200" height="40" as="geometry" />
        </mxCell>
        <mxCell id="C8twne0iV87SFfaMWRcH-6" style="edgeStyle=orthogonalEdgeStyle;rounded=0;orthogonalLoop=1;jettySize=auto;html=1;exitX=0.994;exitY=0.171;exitDx=0;exitDy=0;fillColor=#ffe6cc;strokeColor=#d79b00;exitPerimeter=0;" edge="1" parent="1" source="C8twne0iV87SFfaMWRcH-3">
          <mxGeometry relative="1" as="geometry">
            <mxPoint x="931" y="410" as="targetPoint" />
          </mxGeometry>
        </mxCell>
        <mxCell id="C8twne0iV87SFfaMWRcH-7" value="&lt;div&gt;Create a pseudo random KEY-string&amp;nbsp;&lt;/div&gt;&lt;div&gt;using the seed&lt;/div&gt;" style="rounded=0;whiteSpace=wrap;html=1;fillColor=#ffe6cc;strokeColor=#d79b00;" vertex="1" parent="1">
          <mxGeometry x="930" y="470" width="200" height="40" as="geometry" />
        </mxCell>
        <mxCell id="C8twne0iV87SFfaMWRcH-8" style="edgeStyle=orthogonalEdgeStyle;rounded=0;orthogonalLoop=1;jettySize=auto;html=1;exitX=0;exitY=0.5;exitDx=0;exitDy=0;entryX=1;entryY=0.83;entryDx=0;entryDy=0;entryPerimeter=0;fillColor=#ffe6cc;strokeColor=#d79b00;" edge="1" parent="1" source="C8twne0iV87SFfaMWRcH-7" target="C8twne0iV87SFfaMWRcH-3">
          <mxGeometry relative="1" as="geometry" />
        </mxCell>
        <mxCell id="C8twne0iV87SFfaMWRcH-9" style="edgeStyle=orthogonalEdgeStyle;rounded=0;orthogonalLoop=1;jettySize=auto;html=1;exitX=0.5;exitY=1;exitDx=0;exitDy=0;entryX=0.5;entryY=0;entryDx=0;entryDy=0;" edge="1" parent="1" source="C8twne0iV87SFfaMWRcH-10" target="C8twne0iV87SFfaMWRcH-23">
          <mxGeometry relative="1" as="geometry" />
        </mxCell>
        <mxCell id="C8twne0iV87SFfaMWRcH-10" value="H" style="rounded=0;whiteSpace=wrap;html=1;" vertex="1" parent="1">
          <mxGeometry x="730" y="590" width="20" height="20" as="geometry" />
        </mxCell>
        <mxCell id="C8twne0iV87SFfaMWRcH-11" style="edgeStyle=orthogonalEdgeStyle;rounded=0;orthogonalLoop=1;jettySize=auto;html=1;exitX=0.5;exitY=1;exitDx=0;exitDy=0;entryX=0.75;entryY=0;entryDx=0;entryDy=0;" edge="1" parent="1" source="C8twne0iV87SFfaMWRcH-12" target="C8twne0iV87SFfaMWRcH-23">
          <mxGeometry relative="1" as="geometry">
            <Array as="points">
              <mxPoint x="760" y="620" />
              <mxPoint x="750" y="620" />
            </Array>
          </mxGeometry>
        </mxCell>
        <mxCell id="C8twne0iV87SFfaMWRcH-12" value="E" style="rounded=0;whiteSpace=wrap;html=1;" vertex="1" parent="1">
          <mxGeometry x="750" y="590" width="20" height="20" as="geometry" />
        </mxCell>
        <mxCell id="C8twne0iV87SFfaMWRcH-13" value="L" style="rounded=0;whiteSpace=wrap;html=1;" vertex="1" parent="1">
          <mxGeometry x="770" y="590" width="20" height="20" as="geometry" />
        </mxCell>
        <mxCell id="C8twne0iV87SFfaMWRcH-14" value="L" style="rounded=0;whiteSpace=wrap;html=1;" vertex="1" parent="1">
          <mxGeometry x="790" y="590" width="20" height="20" as="geometry" />
        </mxCell>
        <mxCell id="C8twne0iV87SFfaMWRcH-15" value="O" style="rounded=0;whiteSpace=wrap;html=1;" vertex="1" parent="1">
          <mxGeometry x="810" y="590" width="20" height="20" as="geometry" />
        </mxCell>
        <mxCell id="C8twne0iV87SFfaMWRcH-16" value="0" style="text;html=1;align=center;verticalAlign=middle;whiteSpace=wrap;rounded=0;" vertex="1" parent="1">
          <mxGeometry x="730" y="570" width="20" height="20" as="geometry" />
        </mxCell>
        <mxCell id="C8twne0iV87SFfaMWRcH-17" value="Index" style="text;html=1;align=center;verticalAlign=middle;whiteSpace=wrap;rounded=0;" vertex="1" parent="1">
          <mxGeometry x="690" y="570" width="40" height="20" as="geometry" />
        </mxCell>
        <mxCell id="C8twne0iV87SFfaMWRcH-18" value="1" style="text;html=1;align=center;verticalAlign=middle;whiteSpace=wrap;rounded=0;" vertex="1" parent="1">
          <mxGeometry x="750" y="570" width="20" height="20" as="geometry" />
        </mxCell>
        <mxCell id="C8twne0iV87SFfaMWRcH-19" value="2" style="text;html=1;align=center;verticalAlign=middle;whiteSpace=wrap;rounded=0;" vertex="1" parent="1">
          <mxGeometry x="770" y="570" width="20" height="20" as="geometry" />
        </mxCell>
        <mxCell id="C8twne0iV87SFfaMWRcH-20" value="3" style="text;html=1;align=center;verticalAlign=middle;whiteSpace=wrap;rounded=0;" vertex="1" parent="1">
          <mxGeometry x="790" y="570" width="20" height="20" as="geometry" />
        </mxCell>
        <mxCell id="C8twne0iV87SFfaMWRcH-21" value="4" style="text;html=1;align=center;verticalAlign=middle;whiteSpace=wrap;rounded=0;" vertex="1" parent="1">
          <mxGeometry x="810" y="570" width="20" height="20" as="geometry" />
        </mxCell>
        <mxCell id="C8twne0iV87SFfaMWRcH-22" style="edgeStyle=orthogonalEdgeStyle;rounded=0;orthogonalLoop=1;jettySize=auto;html=1;exitX=0.5;exitY=1;exitDx=0;exitDy=0;entryX=0.5;entryY=0;entryDx=0;entryDy=0;" edge="1" parent="1" source="C8twne0iV87SFfaMWRcH-23" target="C8twne0iV87SFfaMWRcH-27">
          <mxGeometry relative="1" as="geometry" />
        </mxCell>
        <mxCell id="C8twne0iV87SFfaMWRcH-23" value="XOR" style="rounded=0;whiteSpace=wrap;html=1;" vertex="1" parent="1">
          <mxGeometry x="720" y="630" width="40" height="20" as="geometry" />
        </mxCell>
        <mxCell id="C8twne0iV87SFfaMWRcH-24" style="edgeStyle=orthogonalEdgeStyle;rounded=0;orthogonalLoop=1;jettySize=auto;html=1;exitX=1;exitY=0.5;exitDx=0;exitDy=0;entryX=0;entryY=0.5;entryDx=0;entryDy=0;fillColor=#ffe6cc;strokeColor=#d79b00;" edge="1" parent="1" source="C8twne0iV87SFfaMWRcH-25" target="C8twne0iV87SFfaMWRcH-23">
          <mxGeometry relative="1" as="geometry" />
        </mxCell>
        <mxCell id="C8twne0iV87SFfaMWRcH-25" value="KEY" style="rounded=0;whiteSpace=wrap;html=1;fillColor=#ffe6cc;strokeColor=#d79b00;" vertex="1" parent="1">
          <mxGeometry x="650" y="630" width="40" height="20" as="geometry" />
        </mxCell>
        <mxCell id="C8twne0iV87SFfaMWRcH-26" style="edgeStyle=orthogonalEdgeStyle;rounded=0;orthogonalLoop=1;jettySize=auto;html=1;exitX=0.5;exitY=1;exitDx=0;exitDy=0;entryX=0.25;entryY=0;entryDx=0;entryDy=0;" edge="1" parent="1" source="C8twne0iV87SFfaMWRcH-27" target="C8twne0iV87SFfaMWRcH-35">
          <mxGeometry relative="1" as="geometry">
            <Array as="points">
              <mxPoint x="740" y="700" />
              <mxPoint x="750" y="700" />
            </Array>
          </mxGeometry>
        </mxCell>
        <mxCell id="C8twne0iV87SFfaMWRcH-27" value="&amp;gt;" style="rounded=0;whiteSpace=wrap;html=1;" vertex="1" parent="1">
          <mxGeometry x="730" y="670" width="20" height="20" as="geometry" />
        </mxCell>
        <mxCell id="C8twne0iV87SFfaMWRcH-28" style="edgeStyle=orthogonalEdgeStyle;rounded=0;orthogonalLoop=1;jettySize=auto;html=1;exitX=0.5;exitY=1;exitDx=0;exitDy=0;entryX=0.5;entryY=0;entryDx=0;entryDy=0;" edge="1" parent="1" source="C8twne0iV87SFfaMWRcH-29" target="C8twne0iV87SFfaMWRcH-35">
          <mxGeometry relative="1" as="geometry">
            <Array as="points">
              <mxPoint x="760" y="700" />
              <mxPoint x="760" y="700" />
            </Array>
          </mxGeometry>
        </mxCell>
        <mxCell id="C8twne0iV87SFfaMWRcH-29" value="E" style="rounded=0;whiteSpace=wrap;html=1;" vertex="1" parent="1">
          <mxGeometry x="750" y="670" width="20" height="20" as="geometry" />
        </mxCell>
        <mxCell id="C8twne0iV87SFfaMWRcH-30" style="edgeStyle=orthogonalEdgeStyle;rounded=0;orthogonalLoop=1;jettySize=auto;html=1;exitX=0.5;exitY=1;exitDx=0;exitDy=0;entryX=0.75;entryY=0;entryDx=0;entryDy=0;" edge="1" parent="1" source="C8twne0iV87SFfaMWRcH-31" target="C8twne0iV87SFfaMWRcH-35">
          <mxGeometry relative="1" as="geometry">
            <Array as="points">
              <mxPoint x="780" y="700" />
              <mxPoint x="770" y="700" />
            </Array>
          </mxGeometry>
        </mxCell>
        <mxCell id="C8twne0iV87SFfaMWRcH-31" value="L" style="rounded=0;whiteSpace=wrap;html=1;" vertex="1" parent="1">
          <mxGeometry x="770" y="670" width="20" height="20" as="geometry" />
        </mxCell>
        <mxCell id="C8twne0iV87SFfaMWRcH-32" value="L" style="rounded=0;whiteSpace=wrap;html=1;" vertex="1" parent="1">
          <mxGeometry x="790" y="670" width="20" height="20" as="geometry" />
        </mxCell>
        <mxCell id="C8twne0iV87SFfaMWRcH-33" value="O" style="rounded=0;whiteSpace=wrap;html=1;" vertex="1" parent="1">
          <mxGeometry x="810" y="670" width="20" height="20" as="geometry" />
        </mxCell>
        <mxCell id="C8twne0iV87SFfaMWRcH-34" style="edgeStyle=orthogonalEdgeStyle;rounded=0;orthogonalLoop=1;jettySize=auto;html=1;exitX=0.5;exitY=1;exitDx=0;exitDy=0;entryX=0.5;entryY=0;entryDx=0;entryDy=0;" edge="1" parent="1" source="C8twne0iV87SFfaMWRcH-35" target="C8twne0iV87SFfaMWRcH-38">
          <mxGeometry relative="1" as="geometry" />
        </mxCell>
        <mxCell id="C8twne0iV87SFfaMWRcH-35" value="XOR" style="rounded=0;whiteSpace=wrap;html=1;" vertex="1" parent="1">
          <mxGeometry x="740" y="710" width="40" height="20" as="geometry" />
        </mxCell>
        <mxCell id="C8twne0iV87SFfaMWRcH-36" value="&amp;gt;" style="rounded=0;whiteSpace=wrap;html=1;" vertex="1" parent="1">
          <mxGeometry x="730" y="750" width="20" height="20" as="geometry" />
        </mxCell>
        <mxCell id="C8twne0iV87SFfaMWRcH-37" style="edgeStyle=orthogonalEdgeStyle;rounded=0;orthogonalLoop=1;jettySize=auto;html=1;exitX=0.5;exitY=1;exitDx=0;exitDy=0;entryX=0.25;entryY=0;entryDx=0;entryDy=0;" edge="1" parent="1" source="C8twne0iV87SFfaMWRcH-38" target="C8twne0iV87SFfaMWRcH-47">
          <mxGeometry relative="1" as="geometry">
            <Array as="points">
              <mxPoint x="760" y="780" />
              <mxPoint x="770" y="780" />
            </Array>
          </mxGeometry>
        </mxCell>
        <mxCell id="C8twne0iV87SFfaMWRcH-38" value="#" style="rounded=0;whiteSpace=wrap;html=1;" vertex="1" parent="1">
          <mxGeometry x="750" y="750" width="20" height="20" as="geometry" />
        </mxCell>
        <mxCell id="C8twne0iV87SFfaMWRcH-39" style="edgeStyle=orthogonalEdgeStyle;rounded=0;orthogonalLoop=1;jettySize=auto;html=1;exitX=0.5;exitY=1;exitDx=0;exitDy=0;entryX=0.5;entryY=0;entryDx=0;entryDy=0;" edge="1" parent="1" source="C8twne0iV87SFfaMWRcH-40" target="C8twne0iV87SFfaMWRcH-47">
          <mxGeometry relative="1" as="geometry" />
        </mxCell>
        <mxCell id="C8twne0iV87SFfaMWRcH-40" value="L" style="rounded=0;whiteSpace=wrap;html=1;" vertex="1" parent="1">
          <mxGeometry x="770" y="750" width="20" height="20" as="geometry" />
        </mxCell>
        <mxCell id="C8twne0iV87SFfaMWRcH-41" style="edgeStyle=orthogonalEdgeStyle;rounded=0;orthogonalLoop=1;jettySize=auto;html=1;exitX=0.5;exitY=1;exitDx=0;exitDy=0;entryX=0.75;entryY=0;entryDx=0;entryDy=0;" edge="1" parent="1" source="C8twne0iV87SFfaMWRcH-42" target="C8twne0iV87SFfaMWRcH-47">
          <mxGeometry relative="1" as="geometry">
            <Array as="points">
              <mxPoint x="800" y="780" />
              <mxPoint x="790" y="780" />
            </Array>
          </mxGeometry>
        </mxCell>
        <mxCell id="C8twne0iV87SFfaMWRcH-42" value="L" style="rounded=0;whiteSpace=wrap;html=1;" vertex="1" parent="1">
          <mxGeometry x="790" y="750" width="20" height="20" as="geometry" />
        </mxCell>
        <mxCell id="C8twne0iV87SFfaMWRcH-43" value="O" style="rounded=0;whiteSpace=wrap;html=1;" vertex="1" parent="1">
          <mxGeometry x="810" y="750" width="20" height="20" as="geometry" />
        </mxCell>
        <mxCell id="C8twne0iV87SFfaMWRcH-44" style="edgeStyle=orthogonalEdgeStyle;rounded=0;orthogonalLoop=1;jettySize=auto;html=1;exitX=1;exitY=0.5;exitDx=0;exitDy=0;entryX=0;entryY=0.5;entryDx=0;entryDy=0;fillColor=#ffe6cc;strokeColor=#d79b00;" edge="1" parent="1" source="C8twne0iV87SFfaMWRcH-45" target="C8twne0iV87SFfaMWRcH-35">
          <mxGeometry relative="1" as="geometry" />
        </mxCell>
        <mxCell id="C8twne0iV87SFfaMWRcH-45" value="KEY" style="rounded=0;whiteSpace=wrap;html=1;fillColor=#ffe6cc;strokeColor=#d79b00;" vertex="1" parent="1">
          <mxGeometry x="650" y="710" width="40" height="20" as="geometry" />
        </mxCell>
        <mxCell id="C8twne0iV87SFfaMWRcH-46" style="edgeStyle=orthogonalEdgeStyle;rounded=0;orthogonalLoop=1;jettySize=auto;html=1;exitX=0.5;exitY=1;exitDx=0;exitDy=0;entryX=0.5;entryY=0;entryDx=0;entryDy=0;" edge="1" parent="1" source="C8twne0iV87SFfaMWRcH-47" target="C8twne0iV87SFfaMWRcH-51">
          <mxGeometry relative="1" as="geometry" />
        </mxCell>
        <mxCell id="C8twne0iV87SFfaMWRcH-47" value="XOR" style="rounded=0;whiteSpace=wrap;html=1;" vertex="1" parent="1">
          <mxGeometry x="760" y="790" width="40" height="20" as="geometry" />
        </mxCell>
        <mxCell id="C8twne0iV87SFfaMWRcH-48" value="&amp;gt;" style="rounded=0;whiteSpace=wrap;html=1;" vertex="1" parent="1">
          <mxGeometry x="730" y="830" width="20" height="20" as="geometry" />
        </mxCell>
        <mxCell id="C8twne0iV87SFfaMWRcH-49" value="#" style="rounded=0;whiteSpace=wrap;html=1;" vertex="1" parent="1">
          <mxGeometry x="750" y="830" width="20" height="20" as="geometry" />
        </mxCell>
        <mxCell id="C8twne0iV87SFfaMWRcH-50" style="edgeStyle=orthogonalEdgeStyle;rounded=0;orthogonalLoop=1;jettySize=auto;html=1;exitX=0.5;exitY=1;exitDx=0;exitDy=0;entryX=0.25;entryY=0;entryDx=0;entryDy=0;" edge="1" parent="1" source="C8twne0iV87SFfaMWRcH-51" target="C8twne0iV87SFfaMWRcH-59">
          <mxGeometry relative="1" as="geometry">
            <Array as="points">
              <mxPoint x="780" y="860" />
              <mxPoint x="790" y="860" />
            </Array>
          </mxGeometry>
        </mxCell>
        <mxCell id="C8twne0iV87SFfaMWRcH-51" value=")" style="rounded=0;whiteSpace=wrap;html=1;" vertex="1" parent="1">
          <mxGeometry x="770" y="830" width="20" height="20" as="geometry" />
        </mxCell>
        <mxCell id="C8twne0iV87SFfaMWRcH-52" style="edgeStyle=orthogonalEdgeStyle;rounded=0;orthogonalLoop=1;jettySize=auto;html=1;exitX=0.5;exitY=1;exitDx=0;exitDy=0;entryX=0.5;entryY=0;entryDx=0;entryDy=0;" edge="1" parent="1" source="C8twne0iV87SFfaMWRcH-53" target="C8twne0iV87SFfaMWRcH-59">
          <mxGeometry relative="1" as="geometry" />
        </mxCell>
        <mxCell id="C8twne0iV87SFfaMWRcH-53" value="L" style="rounded=0;whiteSpace=wrap;html=1;" vertex="1" parent="1">
          <mxGeometry x="790" y="830" width="20" height="20" as="geometry" />
        </mxCell>
        <mxCell id="C8twne0iV87SFfaMWRcH-54" style="edgeStyle=orthogonalEdgeStyle;rounded=0;orthogonalLoop=1;jettySize=auto;html=1;exitX=0.5;exitY=1;exitDx=0;exitDy=0;entryX=0.75;entryY=0;entryDx=0;entryDy=0;" edge="1" parent="1" source="C8twne0iV87SFfaMWRcH-55" target="C8twne0iV87SFfaMWRcH-59">
          <mxGeometry relative="1" as="geometry">
            <Array as="points">
              <mxPoint x="820" y="860" />
              <mxPoint x="810" y="860" />
            </Array>
          </mxGeometry>
        </mxCell>
        <mxCell id="C8twne0iV87SFfaMWRcH-55" value="O" style="rounded=0;whiteSpace=wrap;html=1;" vertex="1" parent="1">
          <mxGeometry x="810" y="830" width="20" height="20" as="geometry" />
        </mxCell>
        <mxCell id="C8twne0iV87SFfaMWRcH-56" style="edgeStyle=orthogonalEdgeStyle;rounded=0;orthogonalLoop=1;jettySize=auto;html=1;exitX=1;exitY=0.5;exitDx=0;exitDy=0;entryX=0;entryY=0.5;entryDx=0;entryDy=0;fillColor=#ffe6cc;strokeColor=#d79b00;" edge="1" parent="1" source="C8twne0iV87SFfaMWRcH-57" target="C8twne0iV87SFfaMWRcH-47">
          <mxGeometry relative="1" as="geometry" />
        </mxCell>
        <mxCell id="C8twne0iV87SFfaMWRcH-57" value="KEY" style="rounded=0;whiteSpace=wrap;html=1;fillColor=#ffe6cc;strokeColor=#d79b00;" vertex="1" parent="1">
          <mxGeometry x="650" y="790" width="40" height="20" as="geometry" />
        </mxCell>
        <mxCell id="C8twne0iV87SFfaMWRcH-58" style="edgeStyle=orthogonalEdgeStyle;rounded=0;orthogonalLoop=1;jettySize=auto;html=1;exitX=0.5;exitY=1;exitDx=0;exitDy=0;entryX=0.5;entryY=0;entryDx=0;entryDy=0;" edge="1" parent="1" source="C8twne0iV87SFfaMWRcH-59" target="C8twne0iV87SFfaMWRcH-64">
          <mxGeometry relative="1" as="geometry" />
        </mxCell>
        <mxCell id="C8twne0iV87SFfaMWRcH-59" value="XOR" style="rounded=0;whiteSpace=wrap;html=1;" vertex="1" parent="1">
          <mxGeometry x="780" y="870" width="40" height="20" as="geometry" />
        </mxCell>
        <mxCell id="C8twne0iV87SFfaMWRcH-60" value="&amp;gt;" style="rounded=0;whiteSpace=wrap;html=1;" vertex="1" parent="1">
          <mxGeometry x="730" y="910" width="20" height="20" as="geometry" />
        </mxCell>
        <mxCell id="C8twne0iV87SFfaMWRcH-61" value="#" style="rounded=0;whiteSpace=wrap;html=1;" vertex="1" parent="1">
          <mxGeometry x="750" y="910" width="20" height="20" as="geometry" />
        </mxCell>
        <mxCell id="C8twne0iV87SFfaMWRcH-62" value=")" style="rounded=0;whiteSpace=wrap;html=1;" vertex="1" parent="1">
          <mxGeometry x="770" y="910" width="20" height="20" as="geometry" />
        </mxCell>
        <mxCell id="C8twne0iV87SFfaMWRcH-63" style="edgeStyle=orthogonalEdgeStyle;rounded=0;orthogonalLoop=1;jettySize=auto;html=1;exitX=0.5;exitY=1;exitDx=0;exitDy=0;entryX=0.25;entryY=0;entryDx=0;entryDy=0;" edge="1" parent="1" source="C8twne0iV87SFfaMWRcH-64" target="C8twne0iV87SFfaMWRcH-70">
          <mxGeometry relative="1" as="geometry">
            <Array as="points">
              <mxPoint x="800" y="940" />
              <mxPoint x="810" y="940" />
            </Array>
          </mxGeometry>
        </mxCell>
        <mxCell id="C8twne0iV87SFfaMWRcH-64" value="2" style="rounded=0;whiteSpace=wrap;html=1;" vertex="1" parent="1">
          <mxGeometry x="790" y="910" width="20" height="20" as="geometry" />
        </mxCell>
        <mxCell id="C8twne0iV87SFfaMWRcH-65" style="edgeStyle=orthogonalEdgeStyle;rounded=0;orthogonalLoop=1;jettySize=auto;html=1;exitX=0.5;exitY=1;exitDx=0;exitDy=0;entryX=0.5;entryY=0;entryDx=0;entryDy=0;" edge="1" parent="1" source="C8twne0iV87SFfaMWRcH-66" target="C8twne0iV87SFfaMWRcH-70">
          <mxGeometry relative="1" as="geometry" />
        </mxCell>
        <mxCell id="C8twne0iV87SFfaMWRcH-66" value="O" style="rounded=0;whiteSpace=wrap;html=1;" vertex="1" parent="1">
          <mxGeometry x="810" y="910" width="20" height="20" as="geometry" />
        </mxCell>
        <mxCell id="C8twne0iV87SFfaMWRcH-67" style="edgeStyle=orthogonalEdgeStyle;rounded=0;orthogonalLoop=1;jettySize=auto;html=1;exitX=1;exitY=0.5;exitDx=0;exitDy=0;entryX=0;entryY=0.5;entryDx=0;entryDy=0;fillColor=#ffe6cc;strokeColor=#d79b00;" edge="1" parent="1" source="C8twne0iV87SFfaMWRcH-68" target="C8twne0iV87SFfaMWRcH-59">
          <mxGeometry relative="1" as="geometry" />
        </mxCell>
        <mxCell id="C8twne0iV87SFfaMWRcH-68" value="KEY" style="rounded=0;whiteSpace=wrap;html=1;fillColor=#ffe6cc;strokeColor=#d79b00;" vertex="1" parent="1">
          <mxGeometry x="650" y="870" width="40" height="20" as="geometry" />
        </mxCell>
        <mxCell id="C8twne0iV87SFfaMWRcH-69" style="edgeStyle=orthogonalEdgeStyle;rounded=0;orthogonalLoop=1;jettySize=auto;html=1;exitX=0.5;exitY=1;exitDx=0;exitDy=0;entryX=0.5;entryY=0;entryDx=0;entryDy=0;" edge="1" parent="1" source="C8twne0iV87SFfaMWRcH-70" target="C8twne0iV87SFfaMWRcH-75">
          <mxGeometry relative="1" as="geometry" />
        </mxCell>
        <mxCell id="C8twne0iV87SFfaMWRcH-70" value="XOR" style="rounded=0;whiteSpace=wrap;html=1;" vertex="1" parent="1">
          <mxGeometry x="800" y="950" width="40" height="20" as="geometry" />
        </mxCell>
        <mxCell id="C8twne0iV87SFfaMWRcH-71" value="&amp;gt;" style="rounded=0;whiteSpace=wrap;html=1;" vertex="1" parent="1">
          <mxGeometry x="730" y="990" width="20" height="20" as="geometry" />
        </mxCell>
        <mxCell id="C8twne0iV87SFfaMWRcH-72" value="#" style="rounded=0;whiteSpace=wrap;html=1;" vertex="1" parent="1">
          <mxGeometry x="750" y="990" width="20" height="20" as="geometry" />
        </mxCell>
        <mxCell id="C8twne0iV87SFfaMWRcH-73" value=")" style="rounded=0;whiteSpace=wrap;html=1;" vertex="1" parent="1">
          <mxGeometry x="770" y="990" width="20" height="20" as="geometry" />
        </mxCell>
        <mxCell id="C8twne0iV87SFfaMWRcH-74" value="2" style="rounded=0;whiteSpace=wrap;html=1;" vertex="1" parent="1">
          <mxGeometry x="790" y="990" width="20" height="20" as="geometry" />
        </mxCell>
        <mxCell id="C8twne0iV87SFfaMWRcH-75" value="¦" style="rounded=0;whiteSpace=wrap;html=1;" vertex="1" parent="1">
          <mxGeometry x="810" y="990" width="20" height="20" as="geometry" />
        </mxCell>
        <mxCell id="C8twne0iV87SFfaMWRcH-76" style="edgeStyle=orthogonalEdgeStyle;rounded=0;orthogonalLoop=1;jettySize=auto;html=1;exitX=1;exitY=0.5;exitDx=0;exitDy=0;entryX=0;entryY=0.5;entryDx=0;entryDy=0;fillColor=#ffe6cc;strokeColor=#d79b00;" edge="1" parent="1" source="C8twne0iV87SFfaMWRcH-77" target="C8twne0iV87SFfaMWRcH-70">
          <mxGeometry relative="1" as="geometry" />
        </mxCell>
        <mxCell id="C8twne0iV87SFfaMWRcH-77" value="KEY" style="rounded=0;whiteSpace=wrap;html=1;fillColor=#ffe6cc;strokeColor=#d79b00;" vertex="1" parent="1">
          <mxGeometry x="650" y="950" width="40" height="20" as="geometry" />
        </mxCell>
        <mxCell id="C8twne0iV87SFfaMWRcH-78" value="" style="endArrow=classic;html=1;rounded=0;" edge="1" parent="1">
          <mxGeometry width="50" height="50" relative="1" as="geometry">
            <mxPoint x="570" y="390" as="sourcePoint" />
            <mxPoint x="570" y="710" as="targetPoint" />
          </mxGeometry>
        </mxCell>
        <mxCell id="C8twne0iV87SFfaMWRcH-79" value="&lt;div&gt;Time&lt;/div&gt;" style="edgeLabel;html=1;align=center;verticalAlign=middle;resizable=0;points=[];" vertex="1" connectable="0" parent="C8twne0iV87SFfaMWRcH-78">
          <mxGeometry x="0.1903" y="-1" relative="1" as="geometry">
            <mxPoint x="21" y="-160" as="offset" />
          </mxGeometry>
        </mxCell>
        <mxCell id="C8twne0iV87SFfaMWRcH-80" value="&amp;gt;" style="rounded=0;whiteSpace=wrap;html=1;" vertex="1" parent="1">
          <mxGeometry x="730" y="1070" width="20" height="20" as="geometry" />
        </mxCell>
        <mxCell id="C8twne0iV87SFfaMWRcH-81" value="#" style="rounded=0;whiteSpace=wrap;html=1;" vertex="1" parent="1">
          <mxGeometry x="750" y="1070" width="20" height="20" as="geometry" />
        </mxCell>
        <mxCell id="C8twne0iV87SFfaMWRcH-82" value=")" style="rounded=0;whiteSpace=wrap;html=1;" vertex="1" parent="1">
          <mxGeometry x="770" y="1070" width="20" height="20" as="geometry" />
        </mxCell>
        <mxCell id="C8twne0iV87SFfaMWRcH-83" value="2" style="rounded=0;whiteSpace=wrap;html=1;" vertex="1" parent="1">
          <mxGeometry x="790" y="1070" width="20" height="20" as="geometry" />
        </mxCell>
        <mxCell id="C8twne0iV87SFfaMWRcH-84" value="¦" style="rounded=0;whiteSpace=wrap;html=1;" vertex="1" parent="1">
          <mxGeometry x="810" y="1070" width="20" height="20" as="geometry" />
        </mxCell>
        <mxCell id="C8twne0iV87SFfaMWRcH-85" value="K" style="rounded=0;whiteSpace=wrap;html=1;fillColor=#ffe6cc;strokeColor=#d79b00;" vertex="1" parent="1">
          <mxGeometry x="830" y="1070" width="20" height="20" as="geometry" />
        </mxCell>
        <mxCell id="C8twne0iV87SFfaMWRcH-86" value="E" style="rounded=0;whiteSpace=wrap;html=1;fillColor=#ffe6cc;strokeColor=#d79b00;" vertex="1" parent="1">
          <mxGeometry x="850" y="1070" width="20" height="20" as="geometry" />
        </mxCell>
        <mxCell id="C8twne0iV87SFfaMWRcH-87" value="Y" style="rounded=0;whiteSpace=wrap;html=1;fillColor=#ffe6cc;strokeColor=#d79b00;" vertex="1" parent="1">
          <mxGeometry x="870" y="1070" width="20" height="20" as="geometry" />
        </mxCell>
        <mxCell id="C8twne0iV87SFfaMWRcH-88" style="edgeStyle=orthogonalEdgeStyle;rounded=0;orthogonalLoop=1;jettySize=auto;html=1;exitX=0.25;exitY=1;exitDx=0;exitDy=0;entryX=0.5;entryY=0;entryDx=0;entryDy=0;fillColor=#ffe6cc;strokeColor=#d79b00;" edge="1" parent="1" source="C8twne0iV87SFfaMWRcH-91" target="C8twne0iV87SFfaMWRcH-85">
          <mxGeometry relative="1" as="geometry">
            <Array as="points">
              <mxPoint x="850" y="1060" />
              <mxPoint x="840" y="1060" />
            </Array>
          </mxGeometry>
        </mxCell>
        <mxCell id="C8twne0iV87SFfaMWRcH-89" style="edgeStyle=orthogonalEdgeStyle;rounded=0;orthogonalLoop=1;jettySize=auto;html=1;exitX=0.5;exitY=1;exitDx=0;exitDy=0;entryX=0.5;entryY=0;entryDx=0;entryDy=0;fillColor=#ffe6cc;strokeColor=#d79b00;" edge="1" parent="1" source="C8twne0iV87SFfaMWRcH-91" target="C8twne0iV87SFfaMWRcH-86">
          <mxGeometry relative="1" as="geometry" />
        </mxCell>
        <mxCell id="C8twne0iV87SFfaMWRcH-90" style="edgeStyle=orthogonalEdgeStyle;rounded=0;orthogonalLoop=1;jettySize=auto;html=1;exitX=0.75;exitY=1;exitDx=0;exitDy=0;entryX=0.5;entryY=0;entryDx=0;entryDy=0;fillColor=#ffe6cc;strokeColor=#d79b00;" edge="1" parent="1" source="C8twne0iV87SFfaMWRcH-91" target="C8twne0iV87SFfaMWRcH-87">
          <mxGeometry relative="1" as="geometry">
            <Array as="points">
              <mxPoint x="870" y="1060" />
              <mxPoint x="880" y="1060" />
            </Array>
          </mxGeometry>
        </mxCell>
        <mxCell id="C8twne0iV87SFfaMWRcH-91" value="KEY" style="rounded=0;whiteSpace=wrap;html=1;fillColor=#ffe6cc;strokeColor=#d79b00;" vertex="1" parent="1">
          <mxGeometry x="840" y="1030" width="40" height="20" as="geometry" />
        </mxCell>
        <mxCell id="C8twne0iV87SFfaMWRcH-92" value="Text input" style="rounded=0;whiteSpace=wrap;html=1;fillColor=#fff2cc;strokeColor=#d6b656;" vertex="1" parent="1">
          <mxGeometry x="730" y="550" width="100" height="20" as="geometry" />
        </mxCell>
      </root>
    </mxGraphModel>
  </diagram>
</mxfile>
